<svg aria-hidden="true" style="position:absolute;width:0;height:0;overflow:hidden" xmlns="http://www.w3.org/2000/svg">
  <defs>
    <symbol id="icon-x" viewBox="0 0 32 32">
      <path d="M24.884 8.884a1.25 1.25 0 0 0-1.768-1.768L16 14.232 8.884 7.116a1.25 1.25 0 0 0-1.768 1.768L14.232 16l-7.116 7.116a1.25 1.25 0 0 0 1.768 1.768L16 17.768l7.116 7.116a1.25 1.25 0 0 0 1.768-1.768L17.768 16l7.116-7.116z"/>
    </symbol>
    <symbol id="icon-check" viewBox="0 0 32 32">
      <path d="M8 13.333 5.333 16l8 8 13.333-13.333L23.999 8 13.332 18.667l-5.333-5.333z"/>
    </symbol>
    <symbol id="icon-chevron-down" viewBox="0 0 32 32">
      <path d="M6.869 10.869a1.6 1.6 0 0 1 2.263 0l6.869 6.869 6.869-6.869a1.6 1.6 0 1 1 2.263 2.263l-8 8a1.6 1.6 0 0 1-2.263 0l-8-8a1.6 1.6 0 0 1 0-2.263z"/>
    </symbol>
    <symbol id="icon-chevron-up" viewBox="0 0 32 32">
      <path d="M6.869 21.131a1.6 1.6 0 0 0 2.263 0l6.869-6.869 6.869 6.869a1.6 1.6 0 1 0 2.263-2.263l-8-8a1.6 1.6 0 0 0-2.263 0l-8 8a1.6 1.6 0 0 0 0 2.263z"/>
    </symbol>
    <symbol id="icon-clock" viewBox="0 0 32 32">
      <path d="M16 3.867C9.299 3.867 3.867 9.299 3.867 16S9.299 28.133 16 28.133c6.701 0 12.133-5.432 12.133-12.133S22.701 3.867 16 3.867zM1.467 16C1.467 7.973 7.974 1.467 16 1.467S30.533 7.974 30.533 16 24.026 30.533 16 30.533C7.973 30.533 1.467 24.026 1.467 16z"/>
      <path d="M16 6.8A1.2 1.2 0 0 1 17.2 8v7.258l4.67 2.335a1.2 1.2 0 0 1-1.073 2.147l-5.333-2.667A1.199 1.199 0 0 1 14.801 16V8a1.2 1.2 0 0 1 1.2-1.2z"/>
    </symbol>
    <symbol id="icon-eye" viewBox="0 0 32 32">
      <path d="M3.163 16a24.611 24.611 0 0 1 3.17-4.239c2.366-2.523 5.639-4.828 9.666-4.828s7.3 2.304 9.666 4.828A24.611 24.611 0 0 1 28.835 16a24.611 24.611 0 0 1-3.17 4.239c-2.366 2.523-5.639 4.828-9.666 4.828s-7.301-2.304-9.666-4.828A24.611 24.611 0 0 1 3.163 16zm27.504 0c1.431-.715 1.431-.716 1.431-.717l-.001-.001-.002-.003-.005-.01-.016-.031-.055-.106a25.328 25.328 0 0 0-.987-1.667 27.819 27.819 0 0 0-3.031-3.893C25.367 6.762 21.306 3.733 16 3.733S6.634 6.762 3.999 9.572a27.819 27.819 0 0 0-3.813 5.185 14.095 14.095 0 0 0-.26.481l-.016.031-.005.01-.002.003-.001.001c0 .001-.001.001 1.431.717l-1.431-.715c-.225.45-.225.981 0 1.431L1.333 16l-1.431.717.002.005.005.01.016.031.055.106c.047.09.116.216.205.375a27.819 27.819 0 0 0 3.813 5.185c2.634 2.81 6.695 5.839 12.001 5.839S25.365 25.239 28 22.429a27.819 27.819 0 0 0 3.813-5.185 15.888 15.888 0 0 0 .26-.481l.016-.031.005-.01.002-.003.001-.001-1.431-.717zm0 0 1.431-.715c.225.45.225.981 0 1.431L30.667 16z"/>
      <path d="M16 13.6a2.4 2.4 0 1 0 .001 4.801A2.4 2.4 0 0 0 16 13.6zM10.4 16a5.6 5.6 0 1 1 11.2 0 5.6 5.6 0 0 1-11.2 0z"/>
    </symbol>
    <symbol id="icon-eye-off" viewBox="0 0 32 32">
      <path d="M.202.202a1.6 1.6 0 0 1 2.263 0L9.193 6.93l.034.034 5.072 5.072.011.011 5.644 5.644.011.011 5.068 5.068.035.035 6.731 6.731a1.6 1.6 0 1 1-2.263 2.263l-5.805-5.805a15.032 15.032 0 0 1-7.704 2.273h-.026c-5.306 0-9.366-3.029-12.001-5.839a27.819 27.819 0 0 1-3.813-5.185 14.095 14.095 0 0 1-.26-.481l-.016-.031-.005-.01-.002-.003-.001-.001s-.001-.001 1.431-.717l-1.431.716a1.598 1.598 0 0 1 .021-1.472 26.213 26.213 0 0 1 5.777-7.28L.202 2.465a1.6 1.6 0 0 1 0-2.263zm7.766 10.029a22.964 22.964 0 0 0-4.803 5.773 24.611 24.611 0 0 0 3.168 4.235c2.363 2.521 5.632 4.823 9.653 4.828a11.835 11.835 0 0 0 5.404-1.413l-2.699-2.699a5.595 5.595 0 0 1-6.75-.896A5.615 5.615 0 0 1 10.301 16a5.59 5.59 0 0 1 .745-2.692l-3.077-3.077zm5.553 5.553a2.407 2.407 0 0 0 .681 2.013 2.386 2.386 0 0 0 1.739.702c.092-.002.183-.008.274-.02l-2.695-2.695zm2.475-8.851H16c4.027 0 7.3 2.304 9.666 4.828a24.611 24.611 0 0 1 3.169 4.236 23.06 23.06 0 0 1-2.273 3.226 1.6 1.6 0 1 0 2.448 2.06 26.298 26.298 0 0 0 3.067-4.529 1.6 1.6 0 0 0 .02-1.47l-1.431.715c1.431-.715 1.431-.716 1.431-.717l-.001-.001-.002-.003-.005-.01-.016-.031-.055-.106a25.328 25.328 0 0 0-.987-1.667A27.819 27.819 0 0 0 28 9.571c-2.634-2.81-6.694-5.838-11.999-5.839a13.781 13.781 0 0 0-3.167.362 1.6 1.6 0 1 0 .73 3.116c.797-.187 1.613-.28 2.432-.278z"/>
    </symbol>
    <symbol id="icon-heart-hover" viewBox="0 0 31 32">
      <path d="M18.606 3.885a8.24 8.24 0 0 1 6.314 0 8.24 8.24 0 0 1 4.464 4.465 8.244 8.244 0 0 1-1.789 8.99l-11.35 11.35a1.185 1.185 0 0 1-1.676 0L3.219 17.34A8.249 8.249 0 1 1 14.885 5.674l.523.523.523-.523a8.237 8.237 0 0 1 2.676-1.788z"/>
    </symbol>
    <symbol id="icon-heart-normal" viewBox="0 0 31 32">
      <path d="M15.93 5.674c1.534-1.534 3.663-2.417 5.833-2.417s4.299.882 5.832 2.416a8.31 8.31 0 0 1 2.417 5.833 8.31 8.31 0 0 1-2.417 5.833l-11.35 11.35a1.185 1.185 0 0 1-1.676 0l-11.35-11.35A8.249 8.249 0 1 1 14.885 5.673l.523.523.523-.523zm5.833-.047a5.938 5.938 0 0 0-4.156 1.722L16.246 8.71a1.185 1.185 0 0 1-1.676 0l-1.361-1.361a5.88 5.88 0 0 0-8.313 0 5.88 5.88 0 0 0 0 8.314l10.512 10.512L25.92 15.663c1.09-1.089 1.722-2.616 1.722-4.156S27.01 8.44 25.92 7.351a5.938 5.938 0 0 0-4.156-1.722z"/>
    </symbol>
    <symbol id="icon-question" viewBox="0 0 19 32">
      <path d="M4.706 10c0-2.206 1.688-4 3.765-4h1.882c2.076 0 3.765 1.794 3.765 4v.225c0 1.363-.653 2.631-1.729 3.362l-2.482 1.694c-.729.498-1.328 1.182-1.744 1.99s-.633 1.714-.633 2.635V20c0 1.106.841 2 1.882 2s1.882-.894 1.882-2v-.088c0-.512.247-.987.647-1.262l2.482-1.694c2.153-1.475 3.459-4.006 3.459-6.731V10c0-4.419-3.371-8-7.529-8H8.471C4.312 2 .942 5.581.942 10c0 1.106.841 2 1.882 2s1.882-.894 1.882-2zm4.706 20c.624 0 1.223-.263 1.664-.732s.689-1.105.689-1.768-.248-1.299-.689-1.768S10.036 25 9.412 25s-1.223.263-1.664.732c-.441.469-.689 1.105-.689 1.768s.248 1.299.689 1.768S8.788 30 9.412 30z"/>
    </symbol>
    <symbol id="icon-user" viewBox="0 0 32 32">
      <path d="M16 5.333a5.332 5.332 0 1 1 0 10.665 5.332 5.332 0 0 1 0-10.665zm0 13.334c5.893 0 10.667 2.387 10.667 5.333v2.667H5.334V24c0-2.947 4.773-5.333 10.667-5.333z"/>
    </symbol>
    <symbol id="icon-users" viewBox="0 0 32 32">
      <path d="M21.591 22.861v2.54H3.813v-2.54s0-5.079 8.889-5.079 8.889 5.079 8.889 5.079zm-4.445-12.064a4.447 4.447 0 0 0-5.312-4.359A4.448 4.448 0 0 0 8.342 9.93a4.452 4.452 0 0 0 1.89 4.563 4.444 4.444 0 0 0 6.914-3.696zm4.369 6.984a6.763 6.763 0 0 1 2.616 5.08v2.54h5.079v-2.54s0-4.61-7.695-5.079zM20.321 6.353a4.303 4.303 0 0 0-2.451.749 6.352 6.352 0 0 1 0 7.39 4.303 4.303 0 0 0 2.451.749 4.444 4.444 0 0 0 3.143-7.588 4.448 4.448 0 0 0-3.143-1.302z"/>
    </symbol>
    <symbol id="icon-arrow-right-top" viewBox="0 0 32 32">
      <path d="M9.060 5.31l14.26-2.004c0.875-0.123 1.684 0.487 1.807 1.362l2.004 14.26c0.123 0.875-0.487 1.684-1.362 1.807s-1.684-0.487-1.807-1.362l-1.467-10.435-15.008 19.916-2.556-1.926 15.008-19.916-10.435 1.466c-0.875 0.123-1.684-0.487-1.807-1.362s0.487-1.684 1.362-1.807z"></path>
    </symbol>
    <symbol id="icon-star" viewBox="0 0 32 32">
      <path d="M15.116 1.676c0.375-0.711 1.394-0.711 1.769 0l3.776 7.158c0.145 0.274 0.408 0.466 0.714 0.519l7.974 1.38c0.792 0.137 1.107 1.106 0.547 1.682l-5.64 5.804c-0.216 0.222-0.317 0.532-0.273 0.839l1.152 8.010c0.115 0.796-0.709 1.395-1.431 1.040l-7.262-3.571c-0.278-0.137-0.604-0.137-0.882 0l-7.262 3.571c-0.722 0.355-1.546-0.244-1.431-1.040l1.152-8.010c0.044-0.307-0.057-0.617-0.273-0.839l-5.64-5.804c-0.56-0.577-0.246-1.545 0.547-1.682l7.974-1.38c0.306-0.053 0.569-0.244 0.714-0.519l3.776-7.158z"></path>
      <path d="M16.885 1.676c-0.375-0.711-1.394-0.711-1.769 0l-3.776 7.158c-0.145 0.274-0.408 0.466-0.714 0.519l-7.974 1.38c-0.792 0.137-1.107 1.106-0.547 1.682l5.64 5.804c0.216 0.222 0.317 0.532 0.273 0.839l-1.152 8.010c-0.114 0.796 0.71 1.395 1.431 1.040l7.262-3.571c0.278-0.137 0.604-0.137 0.882 0l7.262 3.571c0.722 0.355 1.546-0.244 1.431-1.040l-1.152-8.010c-0.044-0.307 0.057-0.617 0.273-0.839l5.64-5.804c0.56-0.577 0.246-1.545-0.547-1.682l-7.974-1.38c-0.306-0.053-0.569-0.244-0.714-0.519l-3.776-7.158z"></path>
    </symbol>   
  </defs>
</svg>
