<?xml version="1.0" encoding="UTF-8"?>
<!DOCTYPE svg PUBLIC "-//W3C//DTD SVG 1.1//EN" "http://www.w3.org/Graphics/SVG/1.1/DTD/svg11.dtd">
<!-- Creator: CorelDRAW -->
<svg xmlns="http://www.w3.org/2000/svg" xml:space="preserve" width="2930px" height="3957px" version="1.1" style="shape-rendering:geometricPrecision; text-rendering:geometricPrecision; image-rendering:optimizeQuality; fill-rule:evenodd; clip-rule:evenodd"
viewBox="0 0 1071.36 1446.89"
 xmlns:xlink="http://www.w3.org/1999/xlink"
 xmlns:xodm="http://www.corel.com/coreldraw/odm/2003">
 <defs>
  <style type="text/css">
   <![CDATA[
    .fil0 {fill:black}
    .fil1 {fill:white}
   ]]>
  </style>
 </defs>
 <g id="Layer_x0020_1">
  <metadata id="CorelCorpID_0Corel-Layer"/>
  <g id="_2222529860064">
   <path class="fil0" d="M206.81 392.37c-5.44,-48.12 15.65,-102.94 38.93,-144.31 20.8,-36.95 55.72,-71.68 91.18,-94.68 89.61,-58.11 200.16,-70.49 304.14,-53.95 92.32,14.7 186.47,48.05 244.21,125.97 61.2,82.59 90.39,177.02 91.73,279.99 0.77,58.51 -3.92,109.75 -19.4,164.96 -38.46,137.15 -161.99,142.05 -201.48,54.24 -35.97,-79.99 -12.99,-201.62 -128.58,-241.56 -54.56,-18.86 -110.5,-6.01 -164.46,2.09 -58.45,8.76 -106.53,18.03 -165.14,1.53 -48.86,-13.75 -85.12,-41.13 -91.13,-94.28zm-129.35 475.81c-9.32,4.69 -21.6,1.56 -27.94,15.35 -5.36,11.68 1.86,24.07 11,30.85 11.36,8.43 15.18,8.95 21.03,23.16 25.05,60.73 -17.4,82.37 9.71,110.44 37.23,38.53 104.43,12.45 142.18,1.16 22.16,-6.63 88.09,-29.01 109.82,-18.39 11.85,5.8 9.03,25.46 9.16,36.62 0.35,28.62 -0.83,54.85 -7.4,82.63 -10,42.3 -30.3,89.03 -55.21,124.46 -12.3,17.48 -72.01,91.48 -75.56,104.24 -4.32,15.46 4.24,20.7 16.31,26.64 25.77,12.67 81.73,22.24 109.82,25.82 26.61,3.39 53.35,7.14 80.5,9.39 79.4,6.57 94.26,6.65 173.67,6.16 66.34,-0.41 184.57,-9.01 242.6,-27.14 18.07,-5.65 47.94,-14.83 56.92,-33.03 5.6,-11.36 -4.04,-19.8 -10.23,-29.6 -36.82,-58.38 -54.12,-71.24 -76.07,-149.32 -57.48,-204.41 60.41,-260.94 138.26,-370.69 26.24,-36.99 49.83,-70.62 69.27,-112.09 45.02,-96.03 66.72,-192.08 50.93,-298.07 -13.85,-92.94 -52,-176.02 -108.44,-251.01 -53.29,-70.81 -129.37,-119.19 -213.13,-146.45 -44.28,-14.41 -105.2,-27.51 -151.56,-28.11 -29.15,-0.39 -56.73,-2.85 -86.25,0.67 -25.38,3.03 -54.54,4.53 -79.26,10.81 -50.39,12.82 -86.68,22.54 -134.03,45.51 -46.72,22.67 -68.08,42.41 -101.91,77.92 -30.14,31.65 -49.53,73.44 -66.73,113.11 -34.64,79.87 -26.79,150.08 -13.22,231.63 6.09,36.59 0.36,40.11 -13.92,70.05 -18.09,37.92 -44.19,76.34 -65.81,114.01 -26.97,47 -59.35,76.28 7.81,108.8 10.39,5.03 19.42,8.76 26.14,17.97 7.64,10.49 10.16,23.02 -1.64,31.94 -8.26,6.24 -22.13,13.05 -15.14,27.44 4.01,8.27 22.7,7.07 28.32,17.12z"/>
   <path class="fil1" d="M572.26 139.77c6.44,-17.06 30.33,-18.58 38.79,-2.67 3.49,6.57 1.57,5.28 9.56,7.11l135.44 36.36c32.04,-21.38 43.2,6.89 36.7,23.06l5.46 5.25c2.07,1.83 3.65,3.05 5.73,4.91 3.44,3.08 6.95,6.24 10.14,9.71 3.23,3.52 17.57,16.45 21.18,18.49 10.66,-2.73 18.71,-6.4 28.24,3.66 11.05,11.66 1.85,19.61 4.05,30.84 3.65,18.59 10.42,41.12 15.04,59.74 9.95,40.04 19.37,80.53 29.74,121.11 3.65,14.3 9.21,48.45 18.18,57.86 8.7,9.14 6.3,18.29 -1.01,26.5 -4.96,5.57 -8.47,17.83 -11.7,24.86l-44.12 104.75c5.02,14.41 17.34,19.18 6.74,40.56 -14.71,29.7 -58.59,19.7 -60.79,-11.45 -1.42,-20.18 7.96,-24.06 20.33,-33.79l-31.06 -90.47c-13.5,-2.65 -23.66,-1.88 -32,-15.45 -6.87,-11.19 -6.47,-27.01 1.78,-37.34l-71.46 -55.65c-11.01,4.28 -14.26,8.74 -27.21,2.53 -10.11,-4.85 -11.42,-11.05 -13.79,-21.22l-181.36 -9.53c-3.89,6.73 -5.71,14.94 -12.45,19.91 -17.8,13.16 -50.68,10.38 -52.92,-28.39l-127.65 -4.38c-2.52,24.9 -27.24,35.83 -43.1,17.79 -6.56,-7.46 -7.56,-19.7 -2.4,-28.14 6.38,-10.41 14.59,-11.57 26.24,-11.69l41.08 -142.63c-35.01,-26.26 3.73,-78.64 40.17,-51.17l40.41 -35.1c8.01,-7.55 5.05,-2.39 6.36,-12.98 1.41,-11.44 10.63,-17.51 21.82,-16.98 21.67,1.03 -14.54,13.64 79.92,0.85 18.73,-2.54 51.14,-6.55 69.92,-6.82zm-365.45 252.6c6.01,53.15 42.27,80.53 91.13,94.28 58.61,16.5 106.69,7.23 165.14,-1.53 53.96,-8.1 109.9,-20.95 164.46,-2.09 115.59,39.94 92.61,161.57 128.58,241.56 39.49,87.81 163.02,82.91 201.48,-54.24 15.48,-55.21 20.17,-106.45 19.4,-164.96 -1.34,-102.97 -30.53,-197.4 -91.73,-279.99 -57.74,-77.92 -151.89,-111.27 -244.21,-125.97 -103.98,-16.54 -214.53,-4.16 -304.14,53.95 -35.46,23 -70.38,57.73 -91.18,94.68 -23.28,41.37 -44.37,96.19 -38.93,144.31z"/>
   <path class="fil0" d="M866.19 668.2l-18.57 -3.62 -30.63 -90.62c3.44,-3.75 8.15,-5.75 12.41,-10.53 5.63,-6.32 4.22,-10.19 7.59,-15.35 4.7,-2.11 59.42,-11.19 65.32,-10.85 2.01,2.13 3.74,4.38 6.34,5.89 4.66,2.7 4.56,0.82 8.4,3.56l-50.86 121.52zm-29.3 -129.37c-5.16,-9.51 -5.34,-18.17 -16.9,-23.69l24.16 -105.34 63.96 103.19c-10.44,7.2 -5.25,11.56 -8.97,15.05 -1.49,1.39 -16.92,3.57 -20.15,4.18 -11.42,2.12 -31.13,6.35 -42.1,6.61zm-124.3 -77.63c4.69,-14.92 4.24,-11.26 17.88,-19.43 8.12,-4.87 17.22,-10.17 25.58,-14.3 1.59,2.45 34.97,84.38 32.16,87.37 -4.98,5.31 -29.16,-17.64 -38.47,-24.48 -8.12,-5.97 -31.62,-22.68 -37.15,-29.16zm-227.29 -30.46c4.39,-7.08 50.14,-33.1 60.5,-42.23 9.74,7.73 12.93,13.5 27.42,13.6 18.02,0.11 17.97,-8.46 27.31,-12.07l30.6 25.5c5.85,5.26 26.45,21.38 29.27,25.26l-175.1 -10.06zm326.9 80.8l-14.89 -0.4 -33.55 -87.94 38.21 -22.9c7.54,12.19 19.55,13.91 33.14,12.33l-22.91 98.91zm-524.6 -95.04c-0.13,-5.39 -2.05,-0.86 2.54,-5.15l34.75 -25.32c17.24,18.92 38.04,19.53 54.84,0.07 4.78,2.08 17.84,12.04 22.85,15.75 4.89,3.61 18.44,11.29 20.93,16.56l-1.75 4.17c-9.12,1.02 -129.74,-2.48 -134.16,-6.08zm572.45 -137.86l57.39 231.2c-5.47,-2.8 -59.5,-93.92 -66.35,-106.22 11.84,-16.01 12.49,-37.5 -4.78,-48.7l1.62 -72.73 12.12 -3.55zm-190.84 -16.95c5.74,0.65 5.67,2.38 11.38,3.83 4.95,1.25 10.02,0.79 14.99,0.78l57.75 152.82 -38.53 21.95c-12.16,-20.65 -29.71,-23.62 -45.98,-4.08l-64.93 -54.99c2.2,-15.23 2.67,-16.25 -3.56,-30.74l68.88 -89.57zm-194.31 -20.7l78.45 102.29c-3.42,6.45 -7.44,7.41 -10.35,16.23 -2.89,8.77 -1.36,12.37 -0.23,21.34l-61.03 40.69c-7.23,-14.96 -11.1,-11.91 -22.1,-19.76l15.26 -160.79zm238.03 16.34l102.69 92.69 -9.81 7.08c-13.2,10.97 -9.9,26.86 -8.9,36.72l-36.18 21.37 -57.55 -151.89 9.75 -5.97zm126.49 22.63c1.47,12.22 0.58,59.24 -1.86,70.83 -4.04,-1.69 -7.36,-0.75 -11.08,-2.65l-109.53 -98.34 3.84 -7.03 104.94 16.41c2.64,11.62 3.55,15 13.69,20.78zm-383.44 -41.18l10.05 3.45 -14.37 158.03c-0.35,0.2 -0.84,0.42 -1.09,0.53l-11.64 3.79c-4.89,1.89 -6.56,4.14 -10.44,5.75l-45.16 -32.99c4.46,-12.42 -0.98,-20.3 -5.23,-30.55l77.88 -108.01zm103.69 100.63l-78.29 -104.69c4.39,-4.31 11.1,-2.49 21.76,-2.17l152.29 5.01c2.67,4.26 4.86,12.69 8.01,18.04l-68.89 89.13c-18.15,-9.01 -15.87,-6.91 -34.88,-5.32zm-109.8 -111.25c0.38,8.74 -13.03,22.72 -18.51,30.28 -13.18,18.2 -49.84,72.23 -59.24,82.33 -14.13,-3.88 -25.49,-10 -39.52,1.78 -10.77,9.05 -14.6,20.68 -11.16,34.83 -7.62,5.49 -34.91,29.19 -41.37,30.07l40.3 -141.14c27.75,2.25 39.85,-1.8 44.83,-31.83l84.67 -6.32zm269.66 -4.55c3.96,-3.87 31,-16.9 35,-18.25 12.23,9.97 16.48,14.28 33.37,5.07l41.29 38.91c-2.03,1.17 -0.02,0.7 -3.26,1.17l-104.34 -15.49 -2.06 -11.41zm-147.83 -67.15c5.54,5.01 8.66,10.4 17.25,11.9 9.92,1.73 13.64,-4.35 20.48,-6.8 6.27,4.35 20.42,19.86 26.8,26.49 8.83,9.18 18,17.03 26.22,25.46 -5.33,15.51 -5.38,16.21 -10.02,16.53l-168.5 -6.86 -1.84 -7.43 89.61 -59.29zm-167.89 21.81c8.89,10.69 15.33,8.5 27.56,7.22l21.12 28.87 -3.33 5.48 -85.12 6.79 -4.37 -9.46 44.14 -38.9zm265.4 29.64c-3.59,-2.14 -54.53,-50.32 -56.03,-57.55l139.72 36.86 -0.17 9.3 -37.82 18.55c-12.65,-14.32 -27.95,-17.4 -45.7,-7.16zm-100.19 -59.76l-91.34 61.6c-10.21,-2.86 -7.69,-3.59 -18.72,-1.58l-21.53 -28.7c4.07,-9.12 3.13,-8.2 3.49,-18.56l128.1 -12.76zm3.24 -8.38c-18.78,0.27 -51.19,4.28 -69.92,6.82 -94.46,12.79 -58.25,0.18 -79.92,-0.85 -11.19,-0.53 -20.41,5.54 -21.82,16.98 -1.31,10.59 1.65,5.43 -6.36,12.98l-40.41 35.1c-36.44,-27.47 -75.18,24.91 -40.17,51.17l-41.08 142.63c-11.65,0.12 -19.86,1.28 -26.24,11.69 -5.16,8.44 -4.16,20.68 2.4,28.14 15.86,18.04 40.58,7.11 43.1,-17.79l127.65 4.38c2.24,38.77 35.12,41.55 52.92,28.39 6.74,-4.97 8.56,-13.18 12.45,-19.91l181.36 9.53c2.37,10.17 3.68,16.37 13.79,21.22 12.95,6.21 16.2,1.75 27.21,-2.53l71.46 55.65c-8.25,10.33 -8.65,26.15 -1.78,37.34 8.34,13.57 18.5,12.8 32,15.45l31.06 90.47c-12.37,9.73 -21.75,13.61 -20.33,33.79 2.2,31.15 46.08,41.15 60.79,11.45 10.6,-21.38 -1.72,-26.15 -6.74,-40.56l44.12 -104.75c3.23,-7.03 6.74,-19.29 11.7,-24.86 7.31,-8.21 9.71,-17.36 1.01,-26.5 -8.97,-9.41 -14.53,-43.56 -18.18,-57.86 -10.37,-40.58 -19.79,-81.07 -29.74,-121.11 -4.62,-18.62 -11.39,-41.15 -15.04,-59.74 -2.2,-11.23 7,-19.18 -4.05,-30.84 -9.53,-10.06 -17.58,-6.39 -28.24,-3.66 -3.61,-2.04 -17.95,-14.97 -21.18,-18.49 -3.19,-3.47 -6.7,-6.63 -10.14,-9.71 -2.08,-1.86 -3.66,-3.08 -5.73,-4.91l-5.46 -5.25c6.5,-16.17 -4.66,-44.44 -36.7,-23.06l-135.44 -36.36c-7.99,-1.83 -6.07,-0.54 -9.56,-7.11 -8.46,-15.91 -32.35,-14.39 -38.79,2.67z"/>
   <path class="fil1" d="M600.33 351.26c6.23,14.49 5.76,15.51 3.56,30.74l64.93 54.99c16.27,-19.54 33.82,-16.57 45.98,4.08l38.53 -21.95 -57.75 -152.82c-4.97,0.01 -10.04,0.47 -14.99,-0.78 -5.71,-1.45 -5.64,-3.18 -11.38,-3.83l-68.88 89.57z"/>
   <path class="fil1" d="M481.38 234.72l78.29 104.69c19.01,-1.59 16.73,-3.69 34.88,5.32l68.89 -89.13c-3.15,-5.35 -5.34,-13.78 -8.01,-18.04l-152.29 -5.01c-10.66,-0.32 -17.37,-2.14 -21.76,2.17z"/>
   <path class="fil1" d="M365.2 234.48c-4.98,30.03 -17.08,34.08 -44.83,31.83l-40.3 141.14c6.46,-0.88 33.75,-24.58 41.37,-30.07 -3.44,-14.15 0.39,-25.78 11.16,-34.83 14.03,-11.78 25.39,-5.66 39.52,-1.78 9.4,-10.1 46.06,-64.13 59.24,-82.33 5.48,-7.56 18.89,-21.54 18.51,-30.28l-84.67 6.32z"/>
   <path class="fil1" d="M459.64 401.78c11,7.85 14.87,4.8 22.1,19.76l61.03 -40.69c-1.13,-8.97 -2.66,-12.57 0.23,-21.34 2.91,-8.82 6.93,-9.78 10.35,-16.23l-78.45 -102.29 -15.26 160.79z"/>
   <path class="fil1" d="M378.1 346.79c4.25,10.25 9.69,18.13 5.23,30.55l45.16 32.99c3.88,-1.61 5.55,-3.86 10.44,-5.75l11.64 -3.79c0.25,-0.11 0.74,-0.33 1.09,-0.53l14.37 -158.03 -10.05 -3.45 -77.88 108.01z"/>
   <path class="fil1" d="M482.09 215.75l1.84 7.43 168.5 6.86c4.64,-0.32 4.69,-1.02 10.02,-16.53 -8.22,-8.43 -17.39,-16.28 -26.22,-25.46 -6.38,-6.63 -20.53,-22.14 -26.8,-26.49 -6.84,2.45 -10.56,8.53 -20.48,6.8 -8.59,-1.5 -11.71,-6.89 -17.25,-11.9l-89.61 59.29z"/>
   <path class="fil1" d="M917.05 546.68c-3.84,-2.74 -3.74,-0.86 -8.4,-3.56 -2.6,-1.51 -4.33,-3.76 -6.34,-5.89 -5.9,-0.34 -60.62,8.74 -65.32,10.85 -3.37,5.16 -1.96,9.03 -7.59,15.35 -4.26,4.78 -8.97,6.78 -12.41,10.53l30.63 90.62 18.57 3.62 50.86 -121.52z"/>
   <path class="fil1" d="M703.18 263.3l57.55 151.89 36.18 -21.37c-1,-9.86 -4.3,-25.75 8.9,-36.72l9.81 -7.08 -102.69 -92.69 -9.75 5.97z"/>
   <path class="fil1" d="M716.95 249.8l109.53 98.34c3.72,1.9 7.04,0.96 11.08,2.65 2.44,-11.59 3.33,-58.61 1.86,-70.83 -10.14,-5.78 -11.05,-9.16 -13.69,-20.78l-104.94 -16.41 -3.84 7.03z"/>
   <path class="fil1" d="M836.89 538.83c10.97,-0.26 30.68,-4.49 42.1,-6.61 3.23,-0.61 18.66,-2.79 20.15,-4.18 3.72,-3.49 -1.47,-7.85 8.97,-15.05l-63.96 -103.19 -24.16 105.34c11.56,5.52 11.74,14.18 16.9,23.69z"/>
   <path class="fil1" d="M847.93 282.19l-1.62 72.73c17.27,11.2 16.62,32.69 4.78,48.7 6.85,12.3 60.88,103.42 66.35,106.22l-57.39 -231.2 -12.12 3.55z"/>
   <path class="fil1" d="M485.3 430.74l175.1 10.06c-2.82,-3.88 -23.42,-20 -29.27,-25.26l-30.6 -25.5c-9.34,3.61 -9.29,12.18 -27.31,12.07 -14.49,-0.1 -17.68,-5.87 -27.42,-13.6 -10.36,9.13 -56.11,35.15 -60.5,42.23z"/>
   <path class="fil1" d="M835.11 412.63c-13.59,1.58 -25.6,-0.14 -33.14,-12.33l-38.21 22.9 33.55 87.94 14.89 0.4 22.91 -98.91z"/>
   <path class="fil1" d="M440.92 160.91c-0.36,10.36 0.58,9.44 -3.49,18.56l21.53 28.7c11.03,-2.01 8.51,-1.28 18.72,1.58l91.34 -61.6 -128.1 12.76z"/>
   <path class="fil1" d="M669.21 207.91c17.75,-10.24 33.05,-7.16 45.7,7.16l37.82 -18.55 0.17 -9.3 -139.72 -36.86c1.5,7.23 52.44,55.41 56.03,57.55z"/>
   <path class="fil1" d="M287.6 416.5c4.42,3.6 125.04,7.1 134.16,6.08l1.75 -4.17c-2.49,-5.27 -16.04,-12.95 -20.93,-16.56 -5.01,-3.71 -18.07,-13.67 -22.85,-15.75 -16.8,19.46 -37.6,18.85 -54.84,-0.07l-34.75 25.32c-4.59,4.29 -2.67,-0.24 -2.54,5.15z"/>
   <path class="fil1" d="M712.59 461.2c5.53,6.48 29.03,23.19 37.15,29.16 9.31,6.84 33.49,29.79 38.47,24.48 2.81,-2.99 -30.57,-84.92 -32.16,-87.37 -8.36,4.13 -17.46,9.43 -25.58,14.3 -13.64,8.17 -13.19,4.51 -17.88,19.43z"/>
   <path class="fil1" d="M359.67 217.17l4.37 9.46 85.12 -6.79 3.33 -5.48 -21.12 -28.87c-12.23,1.28 -18.67,3.47 -27.56,-7.22l-44.14 38.9z"/>
   <path class="fil1" d="M719.53 223.61l2.06 11.41 104.34 15.49c3.24,-0.47 1.23,0 3.26,-1.17l-41.29 -38.91c-16.89,9.21 -21.14,4.9 -33.37,-5.07 -4,1.35 -31.04,14.38 -35,18.25z"/>
  </g>
 </g>
</svg>
