<!-- Generated by IcoMoon.io -->
<svg version="1.1" xmlns="http://www.w3.org/2000/svg" width="32" height="32" viewBox="0 0 32 32">
<path d="M16 3.867c-6.701 0-12.133 5.432-12.133 12.133s5.432 12.133 12.133 12.133c6.701 0 12.133-5.432 12.133-12.133s-5.432-12.133-12.133-12.133zM1.467 16c0-8.027 6.507-14.533 14.533-14.533s14.533 6.507 14.533 14.533-6.507 14.533-14.533 14.533c-8.027 0-14.533-6.507-14.533-14.533z"></path>
<path d="M16 6.8c0.663 0 1.2 0.537 1.2 1.2v7.258l4.67 2.335c0.593 0.296 0.833 1.017 0.537 1.61s-1.017 0.833-1.61 0.537l-5.333-2.667c-0.407-0.203-0.663-0.619-0.663-1.073v-8c0-0.663 0.537-1.2 1.2-1.2z"></path>
</svg>
