<!-- Generated by IcoMoon.io -->
<svg version="1.1" xmlns="http://www.w3.org/2000/svg" width="32" height="32" viewBox="0 0 32 32">
<path d="M0.202 0.202c0.625-0.625 1.638-0.625 2.263 0l6.728 6.728c0.012 0.011 0.023 0.023 0.034 0.034l5.072 5.072c0.004 0.004 0.007 0.007 0.011 0.011l5.644 5.644c0.004 0.004 0.007 0.007 0.011 0.011l5.068 5.068c0.012 0.012 0.024 0.023 0.035 0.035l6.731 6.731c0.625 0.625 0.625 1.638 0 2.263s-1.638 0.625-2.263 0l-5.805-5.805c-2.307 1.438-4.969 2.228-7.704 2.273-0.005 0-0.010 0-0.015 0-0.004 0-0.007 0-0.011 0-5.306 0-9.366-3.029-12.001-5.839-1.332-1.421-2.348-2.835-3.031-3.893-0.343-0.53-0.604-0.975-0.782-1.292-0.089-0.158-0.158-0.285-0.205-0.375-0.024-0.045-0.042-0.080-0.055-0.106-0.007-0.013-0.012-0.023-0.016-0.031l-0.005-0.010-0.002-0.003-0.001-0.001c-0-0-0.001-0.001 1.431-0.717l-1.431 0.716c-0.233-0.465-0.225-1.014 0.021-1.472 1.479-2.756 3.437-5.22 5.777-7.28l-5.499-5.499c-0.625-0.625-0.625-1.638 0-2.263zM7.968 10.231c-1.906 1.647-3.529 3.597-4.803 5.773 0.132 0.224 0.296 0.493 0.491 0.795 0.608 0.942 1.509 2.194 2.677 3.44 2.363 2.521 5.632 4.823 9.653 4.828 1.897-0.033 3.749-0.522 5.404-1.413l-2.699-2.699c-0.166 0.095-0.337 0.182-0.512 0.26-0.687 0.306-1.428 0.471-2.18 0.484s-1.499-0.125-2.196-0.407c-0.697-0.282-1.331-0.701-1.862-1.233s-0.951-1.165-1.233-1.863-0.42-1.444-0.407-2.196c0.013-0.752 0.178-1.494 0.484-2.18 0.078-0.175 0.165-0.346 0.261-0.512l-3.077-3.077zM13.521 15.784c-0.012 0.091-0.019 0.182-0.021 0.274-0.006 0.322 0.054 0.642 0.174 0.941s0.3 0.57 0.528 0.798c0.228 0.228 0.499 0.408 0.798 0.528s0.619 0.18 0.941 0.174c0.092-0.002 0.183-0.008 0.274-0.020l-2.695-2.695zM15.996 6.933l0.004 0c4.027 0 7.3 2.304 9.666 4.828 1.168 1.246 2.069 2.498 2.677 3.44 0.196 0.303 0.36 0.572 0.492 0.796-0.664 1.138-1.424 2.217-2.273 3.226-0.569 0.676-0.482 1.685 0.194 2.254s1.686 0.482 2.254-0.194c1.177-1.399 2.205-2.917 3.067-4.529 0.245-0.458 0.252-1.006 0.020-1.47l-1.431 0.715c1.431-0.715 1.431-0.716 1.431-0.717l-0.001-0.001-0.002-0.003-0.005-0.010c-0.004-0.008-0.009-0.018-0.016-0.031-0.013-0.026-0.032-0.061-0.055-0.106-0.047-0.090-0.116-0.216-0.205-0.375-0.178-0.317-0.44-0.761-0.782-1.292-0.683-1.058-1.699-2.472-3.031-3.893-2.634-2.81-6.694-5.838-11.999-5.839-1.066-0.002-2.129 0.119-3.167 0.362-0.86 0.201-1.395 1.062-1.193 1.923s1.062 1.395 1.923 1.193c0.797-0.187 1.613-0.28 2.432-0.278z"></path>
</svg>
