<!-- Generated by IcoMoon.io -->
<svg version="1.1" xmlns="http://www.w3.org/2000/svg" width="32" height="32" viewBox="0 0 32 32">
<path d="M3.163 16c0.132-0.225 0.297-0.495 0.493-0.799 0.608-0.942 1.509-2.194 2.677-3.44 2.366-2.523 5.639-4.828 9.666-4.828s7.3 2.304 9.666 4.828c1.168 1.246 2.069 2.498 2.677 3.44 0.196 0.304 0.361 0.574 0.493 0.799-0.132 0.225-0.297 0.495-0.493 0.799-0.608 0.942-1.509 2.194-2.677 3.44-2.366 2.523-5.639 4.828-9.666 4.828s-7.301-2.304-9.666-4.828c-1.168-1.246-2.069-2.498-2.677-3.44-0.196-0.304-0.361-0.574-0.493-0.799zM30.667 16c1.431-0.715 1.431-0.716 1.431-0.717l-0.001-0.001-0.002-0.003-0.005-0.010c-0.004-0.008-0.009-0.018-0.016-0.031-0.013-0.026-0.032-0.061-0.055-0.106-0.047-0.090-0.116-0.216-0.205-0.375-0.178-0.317-0.44-0.761-0.782-1.292-0.683-1.058-1.699-2.472-3.031-3.893-2.634-2.81-6.695-5.839-12.001-5.839s-9.366 3.029-12.001 5.839c-1.332 1.421-2.348 2.835-3.031 3.893-0.343 0.53-0.604 0.975-0.782 1.292-0.089 0.158-0.158 0.285-0.205 0.375-0.024 0.045-0.042 0.080-0.055 0.106-0.007 0.013-0.012 0.023-0.016 0.031l-0.005 0.010-0.002 0.003-0.001 0.001c-0 0.001-0.001 0.001 1.431 0.717l-1.431-0.715c-0.225 0.45-0.225 0.981 0 1.431l1.431-0.716c-1.431 0.716-1.431 0.716-1.431 0.717l0.002 0.005 0.005 0.010c0.004 0.008 0.009 0.018 0.016 0.031 0.013 0.026 0.032 0.061 0.055 0.106 0.047 0.090 0.116 0.216 0.205 0.375 0.178 0.316 0.44 0.761 0.782 1.292 0.683 1.058 1.699 2.472 3.031 3.893 2.634 2.81 6.695 5.839 12.001 5.839s9.366-3.029 12.001-5.839c1.332-1.421 2.348-2.835 3.031-3.893 0.343-0.53 0.604-0.975 0.782-1.292 0.089-0.159 0.158-0.285 0.205-0.375 0.024-0.045 0.042-0.080 0.055-0.106 0.007-0.013 0.012-0.023 0.016-0.031l0.005-0.010 0.002-0.003 0.001-0.001c0-0 0-0.001-1.431-0.717zM30.667 16l1.431-0.715c0.225 0.45 0.225 0.981 0 1.431l-1.431-0.716z"></path>
<path d="M16 13.6c-1.325 0-2.4 1.075-2.4 2.4s1.075 2.4 2.4 2.4c1.325 0 2.4-1.075 2.4-2.4s-1.075-2.4-2.4-2.4zM10.4 16c0-3.093 2.507-5.6 5.6-5.6s5.6 2.507 5.6 5.6c0 3.093-2.507 5.6-5.6 5.6s-5.6-2.507-5.6-5.6z"></path>
</svg>
