<!-- Generated by IcoMoon.io -->
<svg version="1.1" xmlns="http://www.w3.org/2000/svg" width="31" height="32" viewBox="0 0 31 32">
<path d="M15.93 5.674c1.534-1.534 3.663-2.417 5.833-2.417s4.299 0.882 5.832 2.416c1.535 1.534 2.417 3.663 2.417 5.833s-0.882 4.299-2.417 5.833l-11.35 11.35c-0.463 0.463-1.213 0.463-1.676 0l-11.35-11.35c-1.547-1.547-2.416-3.645-2.416-5.833s0.869-4.286 2.416-5.833c1.547-1.547 3.645-2.416 5.833-2.416s4.286 0.869 5.833 2.416l0.523 0.523 0.523-0.523c0-0 0-0 0-0zM21.763 5.627c-1.541 0-3.067 0.632-4.156 1.722l-1.361 1.361c-0.463 0.463-1.213 0.463-1.676 0l-1.361-1.361c-1.102-1.102-2.598-1.722-4.156-1.722s-3.054 0.619-4.157 1.722c-1.102 1.102-1.722 2.598-1.722 4.157s0.619 3.054 1.722 4.157l10.512 10.512 10.512-10.512c1.090-1.089 1.722-2.616 1.722-4.156s-0.632-3.067-1.722-4.156l-0-0c-1.089-1.090-2.615-1.722-4.156-1.722z"></path>
</svg>
