<svg width="16" height="16" viewBox="0 0 16 16" fill="none" xmlns="http://www.w3.org/2000/svg">
<path d="M7.55783 0.838167C7.74543 0.482594 8.25467 0.482595 8.44227 0.838168L10.3305 4.41704C10.4029 4.55417 10.5347 4.64997 10.6875 4.6764L14.6747 5.36629C15.0708 5.43483 15.2282 5.91915 14.948 6.20745L12.1278 9.10921C12.0197 9.22039 11.9694 9.3754 11.9914 9.52886L12.5674 13.5341C12.6247 13.932 12.2127 14.2314 11.8519 14.054L8.22067 12.2685C8.08155 12.2001 7.91855 12.2001 7.77943 12.2685L4.1482 14.054C3.78742 14.2314 3.37544 13.932 3.43267 13.5341L4.00866 9.52886C4.03073 9.3754 3.98036 9.22039 3.87231 9.10921L1.05209 6.20745C0.771891 5.91915 0.929256 5.43483 1.3254 5.36629L5.31261 4.6764C5.46538 4.64997 5.59724 4.55417 5.66959 4.41704L7.55783 0.838167Z" fill="#FFC531"/>
<path fill-rule="evenodd" clip-rule="evenodd" d="M8.44227 0.838168C8.25467 0.482595 7.74543 0.482594 7.55783 0.838167L5.66959 4.41704C5.59724 4.55417 5.46538 4.64997 5.31261 4.6764L1.3254 5.36629C0.929256 5.43483 0.771891 5.91915 1.05209 6.20745L3.87231 9.10921C3.98036 9.22039 4.03073 9.3754 4.00866 9.52886L3.43267 13.5341C3.37544 13.932 3.78742 14.2314 4.1482 14.054L7.77943 12.2685C7.91855 12.2001 8.08155 12.2001 8.22067 12.2685L11.8519 14.054C12.2127 14.2314 12.6247 13.932 12.5674 13.5341L11.9914 9.52886C11.9694 9.3754 12.0197 9.22039 12.1278 9.10921L14.948 6.20745C15.2282 5.91915 15.0708 5.43483 14.6747 5.36629L10.6875 4.6764C10.5347 4.64997 10.4029 4.55417 10.3305 4.41704L8.44227 0.838168Z" fill="#FFC531"/>
</svg>
