<!-- Generated by IcoMoon.io -->
<svg version="1.1" xmlns="http://www.w3.org/2000/svg" width="32" height="32" viewBox="0 0 32 32">
<path d="M21.591 22.861v2.54h-17.778v-2.54c0 0 0-5.079 8.889-5.079s8.889 5.079 8.889 5.079zM17.146 10.797c0-0.879-0.261-1.738-0.749-2.469s-1.183-1.301-1.995-1.637c-0.812-0.336-1.706-0.424-2.568-0.253s-1.654 0.595-2.276 1.216c-0.622 0.622-1.045 1.414-1.216 2.276s-0.083 1.756 0.253 2.568c0.336 0.812 0.906 1.506 1.637 1.995s1.59 0.749 2.469 0.749c1.179 0 2.309-0.468 3.143-1.302s1.302-1.964 1.302-3.143zM21.515 17.781c0.781 0.604 1.419 1.372 1.871 2.25s0.706 1.843 0.745 2.83v2.54h5.079v-2.54c0 0 0-4.61-7.695-5.079zM20.321 6.353c-0.874-0.005-1.729 0.256-2.451 0.749 0.771 1.078 1.186 2.37 1.186 3.695s-0.415 2.617-1.186 3.695c0.722 0.493 1.577 0.754 2.451 0.749 1.179 0 2.309-0.468 3.143-1.302s1.302-1.964 1.302-3.143-0.468-2.309-1.302-3.143c-0.834-0.833-1.964-1.302-3.143-1.302z"></path>
</svg>
